User Type,Username,Date,Text
[T],Tyr3ll,2012-11-23T12:47Z,"General

Complete name                  : A_Lonely_Place_To_Die.(2011).(J.Gilbey)-Remastered-hd.1080p[)(]AC3-5.1-(US-FR)+US-sub.mkv

Format                         : Matroska
Format version                 : Version 2
File size                      : 11.1 GiB
Duration                       : 1h 39mn
Overall bit rate mode          : Variable
Overall bit rate               : 16.0 Mbps
Writing application            : Lavf51.12.1
Writing library                : Lavf51.12.1

Video
ID                             : 1
Format                         : AVC
Format/Info                    : Advanced Video Codec
Format profile                 : Baseline@L4.1
Format settings, CABAC         : No
Format settings, ReFrames      : 1 frame
Format settings, GOP           : M=1, N=12
Codec ID                       : V_MPEG4/ISO/AVC
Duration                       : 1h 39mn
Bit rate mode                  : Variable
Bit rate                       : 14.7 Mbps
Maximum bit rate               : 22.5 Mbps
Width                          : 1 920 pixels
Height                         : 1 080 pixels
Display aspect ratio           : 16:9
Frame rate mode                : Constant
Frame rate                     : 24.000 fps
Color space                    : YUV
Chroma subsampling             : 4:2:0
Bit depth                      : 8 bits
Scan type                      : Progressive
Bits/(Pixel*Frame)             : 0.295
Stream size                    : 10.2 GiB (92%)
Default                        : Yes
Forced                         : No

Audio #1
ID                             : 2
Format                         : AC-3
Format/Info                    : Audio Coding 3
Mode extension                 : CM (complete main)
Format settings, Endianness    : Big
Codec ID                       : A_AC3
Duration                       : 1h 39mn
Bit rate mode                  : Constant
Bit rate                       : 512 Kbps
Channel(s)                     : 6 channels
Channel positions              : Front: L C R, Side: L R, LFE
Sampling rate                  : 48.0 KHz
Bit depth                      : 16 bits
Compression mode               : Lossy
Stream size                    : 363 MiB (3%)
Default                        : Yes
Forced                         : No

Audio #2
ID                             : 4
Format                         : AC-3
Format/Info                    : Audio Coding 3
Mode extension                 : CM (complete main)
Format settings, Endianness    : Big
Codec ID                       : A_AC3
Duration                       : 1h 39mn
Bit rate mode                  : Constant
Bit rate                       : 512 Kbps
Channel(s)                     : 6 channels
Channel positions              : Front: L C R, Side: L R, LFE
Sampling rate                  : 48.0 KHz
Bit depth                      : 16 bits
Compression mode               : Lossy
Stream size                    : 363 MiB (3%)
Default                        : Yes
Forced                         : No

Text
ID                             : 3
Format                         : UTF-8
Codec ID                       : S_TEXT/UTF8
Codec ID/Info                  : UTF-8 Plain Text
Default                        : Yes
Forced                         : No"
